<mxfile host="65bd71144e">
    <diagram id="C5RBs43oDa-KdzZeNtuy" name="Page-1">
        <mxGraphModel dx="947" dy="506" grid="1" gridSize="10" guides="1" tooltips="1" connect="1" arrows="1" fold="1" page="1" pageScale="1" pageWidth="827" pageHeight="1169" math="0" shadow="0">
            <root>
                <mxCell id="WIyWlLk6GJQsqaUBKTNV-0"/>
                <mxCell id="WIyWlLk6GJQsqaUBKTNV-1" parent="WIyWlLk6GJQsqaUBKTNV-0"/>
                <mxCell id="qOuc0xfEpuo1l8o-VKSA-3" value="" style="edgeStyle=orthogonalEdgeStyle;rounded=0;orthogonalLoop=1;jettySize=auto;html=1;" parent="WIyWlLk6GJQsqaUBKTNV-1" source="qOuc0xfEpuo1l8o-VKSA-0" target="qOuc0xfEpuo1l8o-VKSA-29" edge="1">
                    <mxGeometry relative="1" as="geometry">
                        <mxPoint x="160" y="150" as="targetPoint"/>
                    </mxGeometry>
                </mxCell>
                <mxCell id="qOuc0xfEpuo1l8o-VKSA-0" value="Start" style="rounded=1;whiteSpace=wrap;html=1;" parent="WIyWlLk6GJQsqaUBKTNV-1" vertex="1">
                    <mxGeometry x="120" y="90" width="80" height="30" as="geometry"/>
                </mxCell>
                <mxCell id="qOuc0xfEpuo1l8o-VKSA-5" value="" style="edgeStyle=orthogonalEdgeStyle;rounded=0;orthogonalLoop=1;jettySize=auto;html=1;exitX=0.5;exitY=1;exitDx=0;exitDy=0;" parent="WIyWlLk6GJQsqaUBKTNV-1" source="qOuc0xfEpuo1l8o-VKSA-29" target="qOuc0xfEpuo1l8o-VKSA-4" edge="1">
                    <mxGeometry relative="1" as="geometry">
                        <mxPoint x="160" y="210" as="sourcePoint"/>
                    </mxGeometry>
                </mxCell>
                <mxCell id="qOuc0xfEpuo1l8o-VKSA-7" value="" style="edgeStyle=orthogonalEdgeStyle;rounded=0;orthogonalLoop=1;jettySize=auto;html=1;" parent="WIyWlLk6GJQsqaUBKTNV-1" source="qOuc0xfEpuo1l8o-VKSA-4" target="qOuc0xfEpuo1l8o-VKSA-6" edge="1">
                    <mxGeometry relative="1" as="geometry"/>
                </mxCell>
                <mxCell id="qOuc0xfEpuo1l8o-VKSA-4" value="N=Input" style="shape=parallelogram;perimeter=parallelogramPerimeter;whiteSpace=wrap;html=1;fixedSize=1;" parent="WIyWlLk6GJQsqaUBKTNV-1" vertex="1">
                    <mxGeometry x="100" y="250" width="120" height="60" as="geometry"/>
                </mxCell>
                <mxCell id="qOuc0xfEpuo1l8o-VKSA-9" value="" style="edgeStyle=orthogonalEdgeStyle;rounded=0;orthogonalLoop=1;jettySize=auto;html=1;entryX=0;entryY=0.5;entryDx=0;entryDy=0;" parent="WIyWlLk6GJQsqaUBKTNV-1" source="qOuc0xfEpuo1l8o-VKSA-6" target="qOuc0xfEpuo1l8o-VKSA-10" edge="1">
                    <mxGeometry relative="1" as="geometry">
                        <mxPoint x="260" y="380" as="targetPoint"/>
                    </mxGeometry>
                </mxCell>
                <mxCell id="qOuc0xfEpuo1l8o-VKSA-12" value="No" style="edgeLabel;html=1;align=center;verticalAlign=middle;resizable=0;points=[];" parent="qOuc0xfEpuo1l8o-VKSA-9" vertex="1" connectable="0">
                    <mxGeometry x="-0.2667" y="2" relative="1" as="geometry">
                        <mxPoint as="offset"/>
                    </mxGeometry>
                </mxCell>
                <mxCell id="qOuc0xfEpuo1l8o-VKSA-14" value="" style="edgeStyle=orthogonalEdgeStyle;rounded=0;orthogonalLoop=1;jettySize=auto;html=1;" parent="WIyWlLk6GJQsqaUBKTNV-1" source="qOuc0xfEpuo1l8o-VKSA-6" target="qOuc0xfEpuo1l8o-VKSA-13" edge="1">
                    <mxGeometry relative="1" as="geometry"/>
                </mxCell>
                <mxCell id="qOuc0xfEpuo1l8o-VKSA-15" value="Yes" style="edgeLabel;html=1;align=center;verticalAlign=middle;resizable=0;points=[];" parent="qOuc0xfEpuo1l8o-VKSA-14" vertex="1" connectable="0">
                    <mxGeometry x="-0.425" relative="1" as="geometry">
                        <mxPoint as="offset"/>
                    </mxGeometry>
                </mxCell>
                <mxCell id="qOuc0xfEpuo1l8o-VKSA-6" value="N is integer" style="rhombus;whiteSpace=wrap;html=1;" parent="WIyWlLk6GJQsqaUBKTNV-1" vertex="1">
                    <mxGeometry x="120" y="340" width="80" height="80" as="geometry"/>
                </mxCell>
                <mxCell id="qOuc0xfEpuo1l8o-VKSA-11" style="edgeStyle=orthogonalEdgeStyle;rounded=0;orthogonalLoop=1;jettySize=auto;html=1;exitX=1;exitY=0.5;exitDx=0;exitDy=0;entryX=1;entryY=0.5;entryDx=0;entryDy=0;" parent="WIyWlLk6GJQsqaUBKTNV-1" source="qOuc0xfEpuo1l8o-VKSA-10" target="qOuc0xfEpuo1l8o-VKSA-29" edge="1">
                    <mxGeometry relative="1" as="geometry">
                        <mxPoint x="290" y="185" as="targetPoint"/>
                        <mxPoint x="435" y="380" as="sourcePoint"/>
                        <Array as="points">
                            <mxPoint x="420" y="380"/>
                            <mxPoint x="420" y="185"/>
                        </Array>
                    </mxGeometry>
                </mxCell>
                <mxCell id="qOuc0xfEpuo1l8o-VKSA-10" value="&lt;div&gt;Display &quot;This is&amp;nbsp;&lt;/div&gt;&lt;div&gt;not a valid input&quot;&lt;/div&gt;" style="shape=parallelogram;perimeter=parallelogramPerimeter;whiteSpace=wrap;html=1;fixedSize=1;" parent="WIyWlLk6GJQsqaUBKTNV-1" vertex="1">
                    <mxGeometry x="250" y="350" width="120" height="60" as="geometry"/>
                </mxCell>
                <mxCell id="qOuc0xfEpuo1l8o-VKSA-16" style="edgeStyle=orthogonalEdgeStyle;rounded=0;orthogonalLoop=1;jettySize=auto;html=1;exitX=1;exitY=0.5;exitDx=0;exitDy=0;entryX=0.5;entryY=1;entryDx=0;entryDy=0;" parent="WIyWlLk6GJQsqaUBKTNV-1" source="qOuc0xfEpuo1l8o-VKSA-13" target="qOuc0xfEpuo1l8o-VKSA-10" edge="1">
                    <mxGeometry relative="1" as="geometry"/>
                </mxCell>
                <mxCell id="qOuc0xfEpuo1l8o-VKSA-17" value="No" style="edgeLabel;html=1;align=center;verticalAlign=middle;resizable=0;points=[];" parent="qOuc0xfEpuo1l8o-VKSA-16" vertex="1" connectable="0">
                    <mxGeometry x="-0.45" y="1" relative="1" as="geometry">
                        <mxPoint as="offset"/>
                    </mxGeometry>
                </mxCell>
                <mxCell id="qOuc0xfEpuo1l8o-VKSA-19" value="" style="edgeStyle=orthogonalEdgeStyle;rounded=0;orthogonalLoop=1;jettySize=auto;html=1;entryX=0.5;entryY=0;entryDx=0;entryDy=0;" parent="WIyWlLk6GJQsqaUBKTNV-1" source="qOuc0xfEpuo1l8o-VKSA-13" target="qOuc0xfEpuo1l8o-VKSA-22" edge="1">
                    <mxGeometry relative="1" as="geometry">
                        <mxPoint x="160" y="570" as="targetPoint"/>
                    </mxGeometry>
                </mxCell>
                <mxCell id="qOuc0xfEpuo1l8o-VKSA-20" value="Yes" style="edgeLabel;html=1;align=center;verticalAlign=middle;resizable=0;points=[];" parent="qOuc0xfEpuo1l8o-VKSA-19" vertex="1" connectable="0">
                    <mxGeometry x="0.2" y="-1" relative="1" as="geometry">
                        <mxPoint as="offset"/>
                    </mxGeometry>
                </mxCell>
                <mxCell id="qOuc0xfEpuo1l8o-VKSA-13" value="N&amp;lt;10" style="rhombus;whiteSpace=wrap;html=1;" parent="WIyWlLk6GJQsqaUBKTNV-1" vertex="1">
                    <mxGeometry x="120" y="460" width="80" height="80" as="geometry"/>
                </mxCell>
                <mxCell id="qOuc0xfEpuo1l8o-VKSA-24" value="" style="edgeStyle=orthogonalEdgeStyle;rounded=0;orthogonalLoop=1;jettySize=auto;html=1;" parent="WIyWlLk6GJQsqaUBKTNV-1" source="qOuc0xfEpuo1l8o-VKSA-22" target="qOuc0xfEpuo1l8o-VKSA-23" edge="1">
                    <mxGeometry relative="1" as="geometry"/>
                </mxCell>
                <mxCell id="qOuc0xfEpuo1l8o-VKSA-25" value="Yes" style="edgeLabel;html=1;align=center;verticalAlign=middle;resizable=0;points=[];" parent="qOuc0xfEpuo1l8o-VKSA-24" vertex="1" connectable="0">
                    <mxGeometry x="-0.1429" y="1" relative="1" as="geometry">
                        <mxPoint as="offset"/>
                    </mxGeometry>
                </mxCell>
                <mxCell id="qOuc0xfEpuo1l8o-VKSA-27" value="" style="edgeStyle=orthogonalEdgeStyle;rounded=0;orthogonalLoop=1;jettySize=auto;html=1;" parent="WIyWlLk6GJQsqaUBKTNV-1" source="qOuc0xfEpuo1l8o-VKSA-22" target="qOuc0xfEpuo1l8o-VKSA-26" edge="1">
                    <mxGeometry relative="1" as="geometry"/>
                </mxCell>
                <mxCell id="qOuc0xfEpuo1l8o-VKSA-28" value="No" style="edgeLabel;html=1;align=center;verticalAlign=middle;resizable=0;points=[];" parent="qOuc0xfEpuo1l8o-VKSA-27" vertex="1" connectable="0">
                    <mxGeometry x="-0.35" y="-6" relative="1" as="geometry">
                        <mxPoint as="offset"/>
                    </mxGeometry>
                </mxCell>
                <mxCell id="qOuc0xfEpuo1l8o-VKSA-22" value="N=9" style="rhombus;whiteSpace=wrap;html=1;" parent="WIyWlLk6GJQsqaUBKTNV-1" vertex="1">
                    <mxGeometry x="120" y="580" width="80" height="80" as="geometry"/>
                </mxCell>
                <mxCell id="qOuc0xfEpuo1l8o-VKSA-34" value="" style="edgeStyle=orthogonalEdgeStyle;rounded=0;orthogonalLoop=1;jettySize=auto;html=1;entryX=0.5;entryY=0;entryDx=0;entryDy=0;" parent="WIyWlLk6GJQsqaUBKTNV-1" source="qOuc0xfEpuo1l8o-VKSA-23" target="qOuc0xfEpuo1l8o-VKSA-36" edge="1">
                    <mxGeometry relative="1" as="geometry">
                        <mxPoint x="300" y="790" as="targetPoint"/>
                    </mxGeometry>
                </mxCell>
                <mxCell id="qOuc0xfEpuo1l8o-VKSA-23" value="Display &quot;You win!&quot;" style="shape=parallelogram;perimeter=parallelogramPerimeter;whiteSpace=wrap;html=1;fixedSize=1;" parent="WIyWlLk6GJQsqaUBKTNV-1" vertex="1">
                    <mxGeometry x="260" y="590" width="120" height="60" as="geometry"/>
                </mxCell>
                <mxCell id="qOuc0xfEpuo1l8o-VKSA-32" value="" style="edgeStyle=orthogonalEdgeStyle;rounded=0;orthogonalLoop=1;jettySize=auto;html=1;entryX=0.5;entryY=0;entryDx=0;entryDy=0;" parent="WIyWlLk6GJQsqaUBKTNV-1" source="qOuc0xfEpuo1l8o-VKSA-26" target="qOuc0xfEpuo1l8o-VKSA-36" edge="1">
                    <mxGeometry relative="1" as="geometry">
                        <mxPoint x="300" y="790" as="targetPoint"/>
                    </mxGeometry>
                </mxCell>
                <mxCell id="qOuc0xfEpuo1l8o-VKSA-26" value="Display &quot;N+1 I win!&quot;" style="shape=parallelogram;perimeter=parallelogramPerimeter;whiteSpace=wrap;html=1;fixedSize=1;" parent="WIyWlLk6GJQsqaUBKTNV-1" vertex="1">
                    <mxGeometry x="100" y="700" width="120" height="60" as="geometry"/>
                </mxCell>
                <mxCell id="qOuc0xfEpuo1l8o-VKSA-29" value="&lt;br&gt;Display &quot;Type any number lower than 10&quot;&lt;br&gt;" style="shape=parallelogram;perimeter=parallelogramPerimeter;whiteSpace=wrap;html=1;fixedSize=1;" parent="WIyWlLk6GJQsqaUBKTNV-1" vertex="1">
                    <mxGeometry x="77.5" y="160" width="165" height="50" as="geometry"/>
                </mxCell>
                <mxCell id="qOuc0xfEpuo1l8o-VKSA-33" value="End" style="rounded=1;whiteSpace=wrap;html=1;" parent="WIyWlLk6GJQsqaUBKTNV-1" vertex="1">
                    <mxGeometry x="190" y="1030" width="120" height="60" as="geometry"/>
                </mxCell>
                <mxCell id="3" value="" style="edgeStyle=none;html=1;" edge="1" parent="WIyWlLk6GJQsqaUBKTNV-1" source="qOuc0xfEpuo1l8o-VKSA-36" target="1">
                    <mxGeometry relative="1" as="geometry"/>
                </mxCell>
                <mxCell id="qOuc0xfEpuo1l8o-VKSA-36" value="&lt;div&gt;Display &quot;Would you like&lt;/div&gt;&lt;div&gt;&amp;nbsp;to play again? (J/N)&quot;&lt;/div&gt;" style="shape=parallelogram;perimeter=parallelogramPerimeter;whiteSpace=wrap;html=1;fixedSize=1;" parent="WIyWlLk6GJQsqaUBKTNV-1" vertex="1">
                    <mxGeometry x="170" y="800" width="160" height="40" as="geometry"/>
                </mxCell>
                <mxCell id="qOuc0xfEpuo1l8o-VKSA-42" value="" style="edgeStyle=orthogonalEdgeStyle;rounded=0;orthogonalLoop=1;jettySize=auto;html=1;" parent="WIyWlLk6GJQsqaUBKTNV-1" source="qOuc0xfEpuo1l8o-VKSA-38" target="qOuc0xfEpuo1l8o-VKSA-33" edge="1">
                    <mxGeometry relative="1" as="geometry"/>
                </mxCell>
                <mxCell id="qOuc0xfEpuo1l8o-VKSA-43" value="No" style="edgeLabel;html=1;align=center;verticalAlign=middle;resizable=0;points=[];" parent="qOuc0xfEpuo1l8o-VKSA-42" vertex="1" connectable="0">
                    <mxGeometry x="-0.4" y="1" relative="1" as="geometry">
                        <mxPoint as="offset"/>
                    </mxGeometry>
                </mxCell>
                <mxCell id="qOuc0xfEpuo1l8o-VKSA-38" value="Answer = J" style="rhombus;whiteSpace=wrap;html=1;" parent="WIyWlLk6GJQsqaUBKTNV-1" vertex="1">
                    <mxGeometry x="210" y="910" width="80" height="80" as="geometry"/>
                </mxCell>
                <mxCell id="qOuc0xfEpuo1l8o-VKSA-40" value="" style="endArrow=classic;html=1;rounded=0;exitX=1;exitY=0.5;exitDx=0;exitDy=0;entryX=1;entryY=0.5;entryDx=0;entryDy=0;" parent="WIyWlLk6GJQsqaUBKTNV-1" source="qOuc0xfEpuo1l8o-VKSA-38" target="qOuc0xfEpuo1l8o-VKSA-29" edge="1">
                    <mxGeometry width="50" height="50" relative="1" as="geometry">
                        <mxPoint x="380" y="970" as="sourcePoint"/>
                        <mxPoint x="470" y="430" as="targetPoint"/>
                        <Array as="points">
                            <mxPoint x="440" y="950"/>
                            <mxPoint x="440" y="185"/>
                        </Array>
                    </mxGeometry>
                </mxCell>
                <mxCell id="qOuc0xfEpuo1l8o-VKSA-41" value="Yes" style="edgeLabel;html=1;align=center;verticalAlign=middle;resizable=0;points=[];" parent="qOuc0xfEpuo1l8o-VKSA-40" vertex="1" connectable="0">
                    <mxGeometry x="-0.8789" y="3" relative="1" as="geometry">
                        <mxPoint as="offset"/>
                    </mxGeometry>
                </mxCell>
                <mxCell id="2" value="" style="edgeStyle=none;html=1;" edge="1" parent="WIyWlLk6GJQsqaUBKTNV-1" source="1" target="qOuc0xfEpuo1l8o-VKSA-38">
                    <mxGeometry relative="1" as="geometry"/>
                </mxCell>
                <mxCell id="1" value="Input=Answer" style="shape=parallelogram;perimeter=parallelogramPerimeter;whiteSpace=wrap;html=1;fixedSize=1;" vertex="1" parent="WIyWlLk6GJQsqaUBKTNV-1">
                    <mxGeometry x="187.5" y="860" width="125" height="30" as="geometry"/>
                </mxCell>
            </root>
        </mxGraphModel>
    </diagram>
</mxfile>